<?xml version="1.0" encoding="UTF-8" standalone="no"?>
<svg
   xmlns:dc="http://purl.org/dc/elements/1.1/"
   xmlns:cc="http://creativecommons.org/ns#"
   xmlns:rdf="http://www.w3.org/1999/02/22-rdf-syntax-ns#"
   xmlns:svg="http://www.w3.org/2000/svg"
   xmlns="http://www.w3.org/2000/svg"
   xmlns:sodipodi="http://sodipodi.sourceforge.net/DTD/sodipodi-0.dtd"
   xmlns:inkscape="http://www.inkscape.org/namespaces/inkscape"
   inkscape:version="1.0beta2 (2b71d25, 2019-12-03)"
   height="90"
   width="85.864578"
   sodipodi:docname="noun_event_1004866.svg"
   id="svg56"
   xml:space="preserve"
   enable-background="new 0 0 100 100"
   viewBox="0 0 85.864578 90"
   y="0px"
   x="0px"
   version="1.1"><metadata
     id="metadata62"><rdf:RDF><cc:Work
         rdf:about=""><dc:format>image/svg+xml</dc:format><dc:type
           rdf:resource="http://purl.org/dc/dcmitype/StillImage" /></cc:Work></rdf:RDF></metadata><defs
     id="defs60" /><sodipodi:namedview
     inkscape:current-layer="g50"
     inkscape:window-maximized="0"
     inkscape:window-y="0"
     inkscape:window-x="0"
     inkscape:cy="55.826361"
     inkscape:cx="-17.650371"
     inkscape:zoom="2.9606034"
     showgrid="false"
     id="namedview58"
     inkscape:window-height="800"
     inkscape:window-width="1280"
     inkscape:pageshadow="2"
     inkscape:pageopacity="0"
     guidetolerance="10"
     gridtolerance="10"
     objecttolerance="10"
     borderopacity="1"
     inkscape:document-rotation="0"
     bordercolor="#666666"
     pagecolor="#ffffff" /><g
     transform="translate(-7.0683417,-5)"
     id="g12"
     display="none"><rect
       id="rect10"
       height="1263.126"
       width="1329.1331"
       fill="#000000"
       display="inline"
       y="-34.243"
       x="-169.245" /></g><g
     style="fill:#f07422;fill-opacity:1"
     transform="translate(-7.0683417,-5)"
     id="g50"><path
       style="fill:#f07422;fill-opacity:1"
       inkscape:connector-curvature="0"
       id="path14"
       d="m 32.825,26.171 1.607,2.4 c 1.264,-0.847 1.706,-1.967 1.897,-3.008 0.082,-0.447 0.122,-0.882 0.153,-1.271 0.096,-1.216 0.188,-1.712 0.777,-2.107 0.589,-0.394 1.085,-0.29 2.243,0.083 0.372,0.12 0.789,0.248 1.234,0.342 1.035,0.22 2.24,0.238 3.503,-0.608 1.263,-0.846 1.705,-1.966 1.895,-3.007 0.082,-0.447 0.122,-0.882 0.152,-1.271 0.095,-1.215 0.187,-1.711 0.775,-2.105 0.588,-0.393 1.081,-0.29 2.239,0.086 0.371,0.12 0.788,0.249 1.233,0.344 1.034,0.221 2.238,0.239 3.501,-0.607 l -1.607,-2.399 c -0.587,0.392 -1.08,0.288 -2.24,-0.086 -1.236,-0.399 -2.928,-0.945 -4.734,0.263 -1.806,1.209 -1.946,2.983 -2.047,4.278 -0.095,1.215 -0.187,1.711 -0.775,2.105 -0.589,0.394 -1.083,0.292 -2.244,-0.083 -1.236,-0.397 -2.93,-0.943 -4.736,0.266 -1.807,1.21 -1.947,2.984 -2.049,4.279 -0.096,1.215 -0.188,1.712 -0.777,2.106 z" /><path
       style="fill:#f07422;fill-opacity:1"
       inkscape:connector-curvature="0"
       id="path16"
       d="m 70.471,23.964 c 0.443,-0.101 0.859,-0.235 1.229,-0.361 1.154,-0.391 1.649,-0.502 2.242,-0.117 0.596,0.386 0.695,0.881 0.809,2.096 0.037,0.389 0.083,0.822 0.172,1.268 0.206,1.038 0.664,2.152 1.941,2.98 1.277,0.828 2.48,0.792 3.512,0.556 0.443,-0.102 0.858,-0.236 1.227,-0.362 1.155,-0.391 1.647,-0.502 2.24,-0.118 0.593,0.385 0.691,0.879 0.804,2.091 0.036,0.389 0.083,0.823 0.171,1.269 0.205,1.038 0.663,2.151 1.938,2.978 l 1.572,-2.423 c -0.593,-0.385 -0.692,-0.879 -0.805,-2.092 -0.12,-1.293 -0.285,-3.064 -2.108,-4.246 -1.825,-1.184 -3.509,-0.611 -4.74,-0.195 -1.154,0.392 -1.645,0.503 -2.24,0.118 -0.595,-0.386 -0.694,-0.881 -0.809,-2.095 -0.121,-1.293 -0.288,-3.065 -2.112,-4.248 -1.826,-1.184 -3.51,-0.613 -4.74,-0.196 -1.154,0.391 -1.647,0.502 -2.242,0.117 l -1.572,2.423 c 1.275,0.828 2.479,0.793 3.511,0.557 z" /><path
       style="fill:#f07422;fill-opacity:1"
       inkscape:connector-curvature="0"
       id="path18"
       d="m 80.595,8.299 c 0.409,0.408 1.073,0.408 1.482,0 0.408,-0.408 0.408,-1.074 0,-1.482 l -1.51,-1.51 C 80.369,5.109 80.106,5 79.826,5 c -0.28,0 -0.543,0.109 -0.741,0.307 -0.198,0.198 -0.307,0.461 -0.307,0.741 0,0.28 0.109,0.543 0.307,0.741 z" /><path
       style="fill:#f07422;fill-opacity:1"
       inkscape:connector-curvature="0"
       id="path20"
       d="m 85.319,13.023 c 0.396,0.396 1.086,0.396 1.482,0 0.198,-0.198 0.307,-0.461 0.307,-0.741 0,-0.28 -0.109,-0.543 -0.307,-0.741 l -1.51,-1.51 C 85.093,9.833 84.83,9.724 84.55,9.724 c -0.28,0 -0.543,0.109 -0.741,0.307 -0.198,0.198 -0.307,0.461 -0.307,0.741 0,0.28 0.109,0.543 0.307,0.741 z" /><path
       style="fill:#f07422;fill-opacity:1"
       inkscape:connector-curvature="0"
       id="path22"
       d="m 81.336,9.725 c -0.268,0 -0.537,0.102 -0.741,0.306 l -1.51,1.51 c -0.408,0.408 -0.408,1.073 0,1.482 0.409,0.409 1.074,0.408 1.482,0 l 1.51,-1.51 c 0.408,-0.408 0.408,-1.074 0,-1.482 C 81.873,9.827 81.604,9.725 81.336,9.725 Z" /><path
       style="fill:#f07422;fill-opacity:1"
       inkscape:connector-curvature="0"
       id="path24"
       d="m 85.291,8.298 1.51,-1.51 C 86.999,6.59 87.108,6.327 87.108,6.047 87.108,5.767 86.999,5.504 86.801,5.306 86.603,5.109 86.34,5 86.06,5 85.78,5 85.517,5.109 85.319,5.307 l -1.51,1.51 c -0.198,0.198 -0.307,0.461 -0.307,0.741 0,0.28 0.109,0.543 0.307,0.741 0.396,0.394 1.086,0.395 1.482,-10e-4 z" /><path
       style="fill:#f07422;fill-opacity:1"
       inkscape:connector-curvature="0"
       id="path26"
       d="m 12.072,21.651 c 0.409,0.408 1.074,0.408 1.482,0 0.408,-0.408 0.408,-1.074 0,-1.482 l -1.51,-1.51 c -0.204,-0.204 -0.472,-0.306 -0.741,-0.306 -0.268,0 -0.536,0.102 -0.741,0.306 -0.408,0.408 -0.408,1.074 0,1.482 z" /><path
       style="fill:#f07422;fill-opacity:1"
       inkscape:connector-curvature="0"
       id="path28"
       d="m 16.796,26.375 c 0.396,0.396 1.086,0.396 1.482,0 0.198,-0.198 0.307,-0.461 0.307,-0.741 0,-0.28 -0.109,-0.543 -0.307,-0.741 l -1.51,-1.51 c -0.204,-0.204 -0.473,-0.306 -0.741,-0.306 -0.268,0 -0.536,0.102 -0.741,0.306 -0.408,0.408 -0.408,1.073 0,1.482 z" /><path
       style="fill:#f07422;fill-opacity:1"
       inkscape:connector-curvature="0"
       id="path30"
       d="m 12.044,26.375 1.51,-1.51 c 0.408,-0.408 0.408,-1.074 0,-1.482 -0.204,-0.204 -0.472,-0.306 -0.741,-0.306 -0.268,0 -0.536,0.102 -0.741,0.306 l -1.51,1.51 c -0.408,0.408 -0.408,1.073 0,1.482 0.409,0.41 1.074,0.409 1.482,0 z" /><path
       style="fill:#f07422;fill-opacity:1"
       inkscape:connector-curvature="0"
       id="path32"
       d="m 16.768,21.651 1.51,-1.51 c 0.198,-0.198 0.307,-0.461 0.307,-0.741 0,-0.28 -0.109,-0.543 -0.307,-0.741 -0.198,-0.198 -0.461,-0.307 -0.741,-0.307 -0.28,0 -0.543,0.109 -0.741,0.307 l -1.51,1.51 c -0.408,0.408 -0.408,1.073 0,1.482 0.41,0.409 1.074,0.408 1.482,0 z" /><path
       style="fill:#f07422;fill-opacity:1"
       inkscape:connector-curvature="0"
       id="path34"
       d="m 28.546,16.257 c 2.834,0 5.14,-2.306 5.14,-5.14 0,-2.834 -2.306,-5.14 -5.14,-5.14 -2.834,0 -5.14,2.306 -5.14,5.14 0,2.835 2.306,5.14 5.14,5.14 z m 0,-7.391 c 1.242,0 2.252,1.01 2.252,2.252 0,1.242 -1.01,2.252 -2.252,2.252 -1.241,0 -2.252,-1.01 -2.252,-2.252 0.001,-1.242 1.011,-2.252 2.252,-2.252 z" /><g
       style="fill:#f07422;fill-opacity:1"
       id="g48"><path
         style="fill:#f07422;fill-opacity:1"
         inkscape:connector-curvature="0"
         id="path36"
         d="m 73.398,67.854 c 0.268,-4.17 -2.954,-8.51 -7.034,-9.496 -5.106,-1.122 -10.306,-1.686 -15.493,-1.686 -5.188,0 -10.387,0.564 -15.454,1.677 -4.12,0.996 -7.342,5.336 -7.075,9.486 0.328,4.404 0.655,8.884 0.982,13.453 0.456,6.195 5.466,12.008 11.169,12.96 3.452,0.501 6.93,0.752 10.377,0.752 3.447,0 6.925,-0.251 10.337,-0.745 5.744,-0.959 10.754,-6.771 11.21,-12.963 0.328,-4.573 0.655,-9.054 0.981,-13.438 z" /><path
         style="fill:#f07422;fill-opacity:1"
         inkscape:connector-curvature="0"
         id="path38"
         d="m 50.87,53.466 c 6.392,0 11.592,-5.2 11.592,-11.592 0,-6.392 -5.2,-11.592 -11.592,-11.592 -6.392,0 -11.592,5.2 -11.592,11.592 0.001,6.392 5.201,11.592 11.592,11.592 z" /><path
         style="fill:#f07422;fill-opacity:1"
         inkscape:connector-curvature="0"
         id="path40"
         d="m 26.443,81.495 c -0.327,-4.567 -0.654,-9.044 -0.984,-13.474 -0.09,-1.393 0.105,-2.788 0.533,-4.118 0.21,-0.653 0.477,-1.29 0.793,-1.904 -0.669,-0.024 -1.337,-0.055 -2.005,-0.055 0,0 -0.001,0 -0.001,0 -4.005,0 -8.018,0.436 -11.928,1.294 -3.363,0.813 -5.988,4.349 -5.77,7.732 0.251,3.376 0.502,6.805 0.752,10.303 0.364,4.939 4.368,9.574 8.927,10.335 2.674,0.388 5.359,0.582 8.019,0.582 2.05,0 4.114,-0.117 6.157,-0.345 -0.505,-0.567 -0.97,-1.171 -1.403,-1.8 -1.729,-2.51 -2.863,-5.466 -3.09,-8.55 z" /><path
         style="fill:#f07422;fill-opacity:1"
         inkscape:connector-curvature="0"
         id="path42"
         d="m 24.779,59.138 c 5.018,0 9.1,-4.082 9.1,-9.1 0,-5.018 -4.082,-9.1 -9.1,-9.1 -5.018,0 -9.1,4.082 -9.1,9.1 0,5.018 4.082,9.1 9.1,9.1 z" /><path
         style="fill:#f07422;fill-opacity:1"
         inkscape:connector-curvature="0"
         id="path44"
         d="M 87.926,64.183 C 84.063,63.334 80.12,62.907 76.186,62.907 h -0.001 v 0.963 1.971 c 0.104,0.736 0.142,1.482 0.094,2.228 -0.031,0.42 -0.063,0.853 -0.094,1.275 v 5.529 h -0.407 c -0.16,2.188 -0.319,4.397 -0.48,6.631 -0.229,3.106 -1.382,6.084 -3.14,8.607 -0.215,0.309 -0.439,0.611 -0.672,0.905 1.567,0.135 3.137,0.212 4.699,0.212 2.615,0 5.253,-0.19 7.84,-0.565 4.168,-0.696 7.813,-4.936 8.146,-9.456 0.251,-3.501 0.501,-6.931 0.751,-10.288 0.189,-2.956 -2.099,-6.036 -4.996,-6.736 z" /><path
         style="fill:#f07422;fill-opacity:1"
         inkscape:connector-curvature="0"
         id="path46"
         d="m 70.188,56.866 c 0.544,0.329 1.065,0.696 1.554,1.107 1.315,0.739 2.829,1.166 4.442,1.166 5.018,0 9.1,-4.082 9.1,-9.1 0,-5.018 -4.082,-9.1 -9.1,-9.1 -5.018,0 -9.1,4.082 -9.1,9.1 0,2.719 1.206,5.158 3.104,6.827 z" /></g></g></svg>
