<?xml version="1.0" encoding="UTF-8" standalone="no"?>
<svg
   xmlns:dc="http://purl.org/dc/elements/1.1/"
   xmlns:cc="http://creativecommons.org/ns#"
   xmlns:rdf="http://www.w3.org/1999/02/22-rdf-syntax-ns#"
   xmlns:svg="http://www.w3.org/2000/svg"
   xmlns="http://www.w3.org/2000/svg"
   xmlns:sodipodi="http://sodipodi.sourceforge.net/DTD/sodipodi-0.dtd"
   xmlns:inkscape="http://www.inkscape.org/namespaces/inkscape"
   inkscape:version="1.0beta2 (2b71d25, 2019-12-03)"
   height="60.022312"
   width="60.444874"
   sodipodi:docname="noun_Party_1753860.svg"
   id="svg875"
   version="1.1"
   y="0px"
   x="0px"
   viewBox="0 0 60.444874 60.022312"
   data-name="Layer 1">
  <metadata
     id="metadata881">
    <rdf:RDF>
      <cc:Work
         rdf:about="">
        <dc:format>image/svg+xml</dc:format>
        <dc:type
           rdf:resource="http://purl.org/dc/dcmitype/StillImage" />
      </cc:Work>
    </rdf:RDF>
  </metadata>
  <defs
     id="defs879" />
  <sodipodi:namedview
     inkscape:current-layer="svg875"
     inkscape:window-maximized="0"
     inkscape:window-y="0"
     inkscape:window-x="0"
     inkscape:cy="38.022295"
     inkscape:cx="29.987363"
     inkscape:zoom="6.0375"
     showgrid="false"
     id="namedview877"
     inkscape:window-height="800"
     inkscape:window-width="1280"
     inkscape:pageshadow="2"
     inkscape:pageopacity="0"
     guidetolerance="10"
     gridtolerance="10"
     objecttolerance="10"
     borderopacity="1"
     inkscape:document-rotation="0"
     bordercolor="#666666"
     pagecolor="#ffffff" />
  <title
     id="title833">confetti-party-popper</title>
  <path
     inkscape:connector-curvature="0"
     style="fill:#f07422;fill-opacity:1"
     id="path835"
     d="m 0.2773634,59.732295 a 1,1 0 0 0 0.71,0.29 1.14,1.14 0 0 0 0.4,-0.08 l 34.8099996,-15.06 v 0 h 0.08 v 0 a 1,1 0 0 0 0.32,-0.19 v 0 c 1.12,-1.13 -0.81,-4.14 -3.38,-7.22 a 23.49,23.49 0 0 1 2.21,-1.65 l -1.09,-1.68 a 26.51,26.51 0 0 0 -2.43,1.82 c -1.3,-1.45 -2.65,-2.85 -3.8,-4 -1.43,-1.43 -3.24,-3.17 -5.06,-4.72 a 24.87,24.87 0 0 0 4.83,-8.84 l -1.89,-0.64 a 23.11,23.11 0 0 1 -4.46,8.15 c -2.68,-2.1 -5.14,-3.49 -6.13,-2.5 a 1,1 0 0 0 -0.17,0.28 l -0.14,-0.06 -14.9999996,35 a 1,1 0 0 0 0.19,1.1 z m 21.7099996,-25.51 v 14.62 l -3,1.3 v -19.24 c 1,1.12 2,2.27 3,3.32 z m 11.17,9.8 -4.17,1.79 v -4.9 a 30.55,30.55 0 0 0 4.17,3.11 z m -6.17,2.66 -3,1.34 v -11.76 c 0.89,0.89 1.92,1.88 3,2.88 z m -10,4.34 -3,1.3 v -21.09 l 1.93,-4.52 c 0.3,0.52 0.66,1.07 1.07,1.64 z m -5,2.16 -2.9999996,1.3 v -11.46 0 l 2.9999996,-7.13 z m 14.71,-19.87 a 55,55 0 0 1 7.79,9.21 55,55 0 0 1 -9.21,-7.79 55,55 0 0 1 -7.79,-9.21 55,55 0 0 1 9.21,7.79 z m -19.7099996,14.25 v 7.77 l -4.09,1.77 z" />
  <path
     inkscape:connector-curvature="0"
     style="fill:#f07422;fill-opacity:1"
     id="path837"
     d="m 28.417363,16.272295 a 24.93,24.93 0 0 0 0.08,-10.2499999 l -2,0.39 a 23,23 0 0 1 -0.07,9.4299999 z" />
  <path
     inkscape:connector-curvature="0"
     style="fill:#f07422;fill-opacity:1"
     id="path839"
     d="m 37.537363,34.542295 a 23.28,23.28 0 0 1 15.06,-2.07 l 0.39,-2 a 25.25,25.25 0 0 0 -16.36,2.25 z" />
  <polygon
     transform="translate(-2.0126366,-1.9777049)"
     style="fill:#f07422;fill-opacity:1"
     id="polygon841"
     points="32,7 35,7 35,10 37,10 37,7 40,7 40,5 37,5 37,2 35,2 35,5 32,5 " />
  <polygon
     transform="translate(-2.0126366,-1.9777049)"
     style="fill:#f07422;fill-opacity:1"
     id="polygon843"
     points="54,27 54,29 57,29 57,32 59,32 59,29 62,29 62,27 59,27 59,24 57,24 57,27 " />
  <path
     inkscape:connector-curvature="0"
     style="fill:#f07422;fill-opacity:1"
     id="path845"
     d="m 58.627363,1.1922951 a 1,1 0 0 0 -0.4,-0.99999995 1,1 0 0 0 -1.05,-0.08 l -2.46,1.29999995 -2.46,-1.29999995 a 1,1 0 0 0 -1.05,0.08 1,1 0 0 0 -0.4,0.99999995 l 0.47,2.74 -2,1.94 a 1,1 0 0 0 0.56,1.7 l 2.75,0.4 1.22,2.4899999 a 1,1 0 0 0 1.8,0 l 1.24,-2.4399999 2.75,-0.4 a 1,1 0 0 0 0.55,-1.7 l -2,-1.94 z m -2.59,4.88 a 1,1 0 0 0 -0.75,0.54 l -0.57,1.15 -0.56,-1.14 a 1,1 0 0 0 -0.76,-0.55 l -1.26,-0.19 0.91,-0.86 a 1,1 0 0 0 0.29,-0.88 l -0.21,-1.26 1.13,0.59 a 1,1 0 0 0 0.93,0 l 1.13,-0.59 -0.22,1.26 a 1,1 0 0 0 0.29,0.88 l 0.91,0.89 z" />
  <path
     inkscape:connector-curvature="0"
     style="fill:#f07422;fill-opacity:1"
     id="path847"
     d="m 35.987363,21.022295 a 3,3 0 0 1 -2.16,2.88 l 0.55,1.92 a 5,5 0 0 0 3.61,-4.8 3,3 0 0 1 2.29,-2.92 3.36,3.36 0 0 1 0.71,-0.08 h 1 a 5,5 0 0 0 5,-5 h -2 a 3,3 0 0 1 -3,3 h -1 a 5.15,5.15 0 0 0 -1.18,0.14 5,5 0 0 0 -3.82,4.86 z" />
  <path
     inkscape:connector-curvature="0"
     style="fill:#f07422;fill-opacity:1"
     id="path849"
     d="m 28.987363,29.022295 a 3,3 0 0 1 3,-3 v -2 a 5,5 0 0 0 -5,5 z" />
  <rect
     style="fill:#f07422;fill-opacity:1"
     id="rect851"
     height="2"
     width="2"
     y="14.022295"
     x="57.987362" />
  <rect
     style="fill:#f07422;fill-opacity:1"
     id="rect853"
     height="2"
     width="2"
     y="39.022297"
     x="42.987362" />
  <rect
     style="fill:#f07422;fill-opacity:1"
     id="rect855"
     height="2"
     width="2"
     y="12.022295"
     x="15.987364" />
  <rect
     style="fill:#f07422;fill-opacity:1"
     id="rect857"
     transform="rotate(-88.15)"
     height="2"
     width="2"
     y="41.325069"
     x="-10.663567" />
  <rect
     style="fill:#f07422;fill-opacity:1"
     id="rect859"
     height="2"
     width="2"
     y="3.0222952"
     x="42.987362" />
  <rect
     style="fill:#f07422;fill-opacity:1"
     id="rect861"
     height="2"
     width="2"
     y="24.022295"
     x="43.987362" />
  <rect
     style="fill:#f07422;fill-opacity:1"
     id="rect863"
     height="2"
     width="2"
     y="15.022295"
     x="49.987362" />
  <rect
     style="fill:#f07422;fill-opacity:1"
     id="rect865"
     height="2"
     width="2"
     y="37.022297"
     x="54.987362" />
  <rect
     style="fill:#f07422;fill-opacity:1"
     id="rect867"
     height="2"
     width="2"
     y="15.022295"
     x="32.987362" />
  <rect
     style="fill:#f07422;fill-opacity:1"
     id="rect869"
     height="2"
     width="2"
     y="1.0222951"
     x="18.987364" />
</svg>
